<?xml version="1.0" standalone="no"?><!DOCTYPE svg PUBLIC "-//W3C//DTD SVG 1.1//EN" "http://www.w3.org/Graphics/SVG/1.1/DTD/svg11.dtd"><svg t="1585229354408" class="icon" viewBox="0 0 1024 1024" version="1.1" xmlns="http://www.w3.org/2000/svg" p-id="6204" xmlns:xlink="http://www.w3.org/1999/xlink" width="200" height="200"><defs><style type="text/css"></style></defs><path d="M512 793.696c-23.998 0-49.5-2.094-76.5-6.296l-183.599 174.6v-236.697c-58.799-33.602-105.153-76.5-139.053-128.703-33.899-52.199-50.849-108.598-50.849-169.199 0-66.002 20.101-127.050 60.303-183.151 40.196-56.101 94.798-100.498 163.796-133.197 69.003-32.701 144.299-49.053 225.901-49.053 81.602 0 156.898 16.352 225.901 49.053 68.998 32.699 123.601 77.098 163.796 133.197 40.202 56.101 60.303 117.299 60.303 183.599 0 66.301-20.101 127.503-60.303 183.599-40.196 56.102-94.799 100.503-163.797 133.204-69.002 32.699-144.298 49.045-225.9 49.045v0zM275.303 343.697c-19.803 0-36.603 8.105-50.401 24.303-13.799 16.197-20.704 36-20.704 59.401 0 23.401 6.904 43.347 20.704 59.849 13.798 16.502 30.599 24.75 50.401 24.75 19.796 0 36.597-8.248 50.395-24.75 13.804-16.502 20.704-36.447 20.704-59.849 0-23.401-6.899-43.204-20.704-59.401-13.798-16.197-30.599-24.303-50.395-24.303v0zM512 343.697c-19.803 0-36.602 8.105-50.401 24.303-13.798 16.197-20.697 36-20.697 59.401 0 23.401 6.899 43.347 20.697 59.849 13.799 16.502 30.599 24.75 50.401 24.75 19.803 0 36.602-8.248 50.401-24.75s20.697-36.447 20.697-59.849c0-23.401-6.899-43.204-20.697-59.401s-30.599-24.303-50.401-24.303v0zM748.697 343.697c-19.797 0-36.597 8.105-50.396 24.303-13.804 16.197-20.703 36-20.703 59.401 0 23.401 6.899 43.347 20.703 59.849 13.799 16.502 30.599 24.75 50.396 24.75 19.803 0 36.602-8.248 50.401-24.75s20.703-36.447 20.703-59.849c0-23.401-6.904-43.204-20.703-59.401s-30.599-24.303-50.401-24.303v0zM748.697 343.697z" fill="#8a8a8a" p-id="6205"></path></svg>