<?xml version="1.0" standalone="no"?><!DOCTYPE svg PUBLIC "-//W3C//DTD SVG 1.1//EN" "http://www.w3.org/Graphics/SVG/1.1/DTD/svg11.dtd"><svg t="1585229456012" class="icon" viewBox="0 0 1024 1024" version="1.1" xmlns="http://www.w3.org/2000/svg" p-id="10341" xmlns:xlink="http://www.w3.org/1999/xlink" width="200" height="200"><defs><style type="text/css"></style></defs><path d="M512.004093 832.577273c176.137603 0 318.925656-142.788054 318.925656-318.925656S688.142719 194.72596 512.004093 194.72596 193.078437 337.514013 193.078437 513.651616 335.866491 832.577273 512.004093 832.577273zM701.038424 663.502529c0.669242 5.189186 0.919952 10.204409 0.753153 15.047718-0.167822 4.843308-1.254573 9.080819-3.263323 12.712533-2.007727 3.632737-5.187139 6.572696-9.538237 8.820899-4.351098 2.248204-10.375302 3.372817-18.072611 3.372817-10.709923 0.345877-17.9887-2.162246-21.837354-7.52437-3.848655-5.362124-6.609535-14.097066-8.283664-26.203802l-24.096814-187.321316c-1.338485-7.956206-3.347235-11.93482-6.024204-11.93482-2.676969 0-5.187139 3.978614-7.53051 11.93482L546.920324 681.663144c-1.673106 6.572696-4.433986 11.847839-8.28264 15.826454-3.848655 3.978614-11.127432 5.966898-21.837354 5.966898-5.689582 0-10.375302-0.432859-14.056134-1.297552-3.681856-0.864694-6.693446-2.248204-9.035794-4.151553-2.342348-1.902326-4.099365-4.151553-5.27105-6.745634-1.171686-2.594081-2.25946-5.79396-3.263323-9.599635-9.706059-33.555234-19.327184-66.677609-28.865421-99.368148-9.538237-32.69054-18.992563-65.812915-28.364001-99.368148-2.342348-8.302083-4.768607-12.453636-7.278777-12.453636-2.51017 0-4.433986 4.151553-5.773494 12.453636L391.296941 666.615427c-1.673106 12.453636-4.936429 21.707394-9.788947 27.761274-4.852518 6.053879-13.637602 9.080819-26.355251 9.080819-10.375302 0-17.570167-3.02694-21.586644-9.080819-4.016477-6.053879-4.852518-16.34527-2.51017-30.874171l43.173289-294.213835c1.673106-12.107759 6.108115-21.447475 13.302981-28.02017 7.195889-6.572696 16.147772-9.858532 26.857694-9.858532s19.745716 2.76702 27.108405 8.302083c7.362688 5.535063 13.386892 16.604166 18.072611 33.209356l57.229422 216.898959L572.523445 371.882775c4.351098-16.259312 10.29139-27.069519 17.821901-32.43062 7.53051-5.362124 16.315594-8.043187 26.355251-8.043187 9.706059 0 18.491143 3.372817 26.355251 10.118452s12.801561 16.518209 14.809287 29.317723L701.038424 663.502529z" p-id="10342"></path></svg>